<svg width="114" height="43" viewBox="0 0 114 43" fill="none" xmlns="http://www.w3.org/2000/svg">
<path d="M5.71023 40.4545V25.9091H6.64205V40.4545H5.71023ZM8.625 30.4205C8.56439 29.8826 8.31439 29.4659 7.875 29.1705C7.43561 28.8712 6.88258 28.7216 6.21591 28.7216C5.73864 28.7216 5.32576 28.7973 4.97727 28.9489C4.62879 29.0966 4.35795 29.3011 4.16477 29.5625C3.97538 29.8201 3.88068 30.1136 3.88068 30.4432C3.88068 30.7197 3.94508 30.9583 4.07386 31.1591C4.20644 31.3598 4.37879 31.5284 4.59091 31.6648C4.80682 31.7973 5.03788 31.9091 5.28409 32C5.5303 32.0871 5.76705 32.1591 5.99432 32.2159L7.13068 32.5114C7.50189 32.6023 7.88258 32.7254 8.27273 32.8807C8.66288 33.036 9.02462 33.2405 9.35795 33.4943C9.69129 33.7481 9.96023 34.0625 10.1648 34.4375C10.3731 34.8125 10.4773 35.2614 10.4773 35.7841C10.4773 36.4432 10.3068 37.0284 9.96591 37.5398C9.62879 38.0511 9.13826 38.4545 8.49432 38.75C7.85417 39.0455 7.07955 39.1932 6.17045 39.1932C5.29924 39.1932 4.54545 39.0549 3.90909 38.7784C3.27273 38.5019 2.77462 38.1098 2.41477 37.6023C2.05492 37.0909 1.85606 36.4848 1.81818 35.7841H3.57955C3.61364 36.2045 3.75 36.5549 3.98864 36.8352C4.23106 37.1117 4.53977 37.3182 4.91477 37.4545C5.29356 37.5871 5.70833 37.6534 6.15909 37.6534C6.6553 37.6534 7.09659 37.5758 7.48295 37.4205C7.87311 37.2614 8.17992 37.0417 8.40341 36.7614C8.62689 36.4773 8.73864 36.1458 8.73864 35.767C8.73864 35.4223 8.64015 35.1402 8.44318 34.9205C8.25 34.7008 7.98674 34.5189 7.65341 34.375C7.32386 34.2311 6.95076 34.1042 6.53409 33.9943L5.15909 33.6193C4.22727 33.3655 3.48864 32.9924 2.94318 32.5C2.40152 32.0076 2.13068 31.3561 2.13068 30.5455C2.13068 29.875 2.3125 29.2898 2.67614 28.7898C3.03977 28.2898 3.5322 27.9015 4.15341 27.625C4.77462 27.3447 5.47538 27.2045 6.25568 27.2045C7.04356 27.2045 7.73864 27.3428 8.34091 27.6193C8.94697 27.8958 9.42424 28.2765 9.77273 28.7614C10.1212 29.2424 10.303 29.7955 10.3182 30.4205H8.625ZM12.4162 39V37.7273L16.3537 33.6477C16.7741 33.2045 17.1207 32.8163 17.3935 32.483C17.67 32.1458 17.8764 31.8258 18.0128 31.5227C18.1491 31.2197 18.2173 30.8977 18.2173 30.5568C18.2173 30.1705 18.1264 29.8371 17.9446 29.5568C17.7628 29.2727 17.5147 29.0549 17.2003 28.9034C16.8859 28.7481 16.5317 28.6705 16.1378 28.6705C15.7211 28.6705 15.3575 28.7557 15.0469 28.9261C14.7363 29.0966 14.4976 29.3371 14.331 29.6477C14.1643 29.9583 14.081 30.322 14.081 30.7386H12.4048C12.4048 30.0303 12.5677 29.411 12.8935 28.8807C13.2192 28.3504 13.6662 27.9394 14.2344 27.6477C14.8026 27.3523 15.4484 27.2045 16.1719 27.2045C16.9029 27.2045 17.5469 27.3504 18.1037 27.642C18.6643 27.9299 19.1018 28.3239 19.4162 28.8239C19.7306 29.3201 19.8878 29.8807 19.8878 30.5057C19.8878 30.9375 19.8063 31.3598 19.6435 31.7727C19.4844 32.1856 19.206 32.6458 18.8082 33.1534C18.4105 33.6572 17.8575 34.2689 17.1491 34.9886L14.8366 37.4091V37.4943H20.0753V39H12.4162ZM21.7344 36.7273V35.3068L26.7628 27.3636H27.8821V29.4545H27.1719L23.5753 35.1477V35.2386H30.4673V36.7273H21.7344ZM27.2514 39V36.2955L27.2628 35.6477V27.3636H28.9276V39H27.2514ZM36.2884 39.1591C35.5762 39.1591 34.9361 39.0227 34.3679 38.75C33.8035 38.4735 33.3527 38.0947 33.0156 37.6136C32.6785 37.1326 32.4986 36.5833 32.4759 35.9659H34.1804C34.2221 36.4659 34.4437 36.8769 34.8452 37.1989C35.2467 37.5208 35.7277 37.6818 36.2884 37.6818C36.7353 37.6818 37.1312 37.5795 37.4759 37.375C37.8243 37.1667 38.0971 36.8807 38.294 36.517C38.4948 36.1534 38.5952 35.7386 38.5952 35.2727C38.5952 34.7992 38.4929 34.3769 38.2884 34.0057C38.0838 33.6345 37.8016 33.3428 37.4418 33.1307C37.0857 32.9186 36.6766 32.8106 36.2145 32.8068C35.8622 32.8068 35.508 32.8674 35.152 32.9886C34.7959 33.1098 34.508 33.2689 34.2884 33.4659L32.6804 33.2273L33.3338 27.3636H39.7315V28.8693H34.794L34.4247 32.125H34.4929C34.7202 31.9053 35.0213 31.7216 35.3963 31.5739C35.7751 31.4261 36.1804 31.3523 36.6122 31.3523C37.3205 31.3523 37.9512 31.5208 38.5043 31.858C39.0611 32.1951 39.4986 32.6553 39.8168 33.2386C40.1387 33.8182 40.2978 34.4848 40.294 35.2386C40.2978 35.9924 40.1274 36.6648 39.7827 37.2557C39.4418 37.8466 38.9683 38.3125 38.3622 38.6534C37.7599 38.9905 37.0687 39.1591 36.2884 39.1591ZM43.0895 39.108C42.7789 39.108 42.5118 38.9981 42.2884 38.7784C42.0649 38.5549 41.9531 38.286 41.9531 37.9716C41.9531 37.661 42.0649 37.3958 42.2884 37.1761C42.5118 36.9527 42.7789 36.8409 43.0895 36.8409C43.4001 36.8409 43.6671 36.9527 43.8906 37.1761C44.1141 37.3958 44.2259 37.661 44.2259 37.9716C44.2259 38.1799 44.1728 38.3712 44.0668 38.5455C43.9645 38.7159 43.8281 38.8523 43.6577 38.9545C43.4872 39.0568 43.2978 39.108 43.0895 39.108ZM50.108 39.1932C49.2102 39.1894 48.4432 38.9527 47.8068 38.483C47.1705 38.0133 46.6837 37.3295 46.3466 36.4318C46.0095 35.5341 45.8409 34.4527 45.8409 33.1875C45.8409 31.9261 46.0095 30.8485 46.3466 29.9545C46.6875 29.0606 47.1761 28.3788 47.8125 27.9091C48.4527 27.4394 49.2178 27.2045 50.108 27.2045C50.9981 27.2045 51.7614 27.4413 52.3977 27.9148C53.0341 28.3845 53.5208 29.0663 53.858 29.9602C54.1989 30.8504 54.3693 31.9261 54.3693 33.1875C54.3693 34.4564 54.2008 35.5398 53.8636 36.4375C53.5265 37.3314 53.0398 38.0152 52.4034 38.4886C51.767 38.9583 51.0019 39.1932 50.108 39.1932ZM50.108 37.6761C50.8958 37.6761 51.5114 37.2917 51.9545 36.5227C52.4015 35.7538 52.625 34.642 52.625 33.1875C52.625 32.2216 52.5227 31.4053 52.3182 30.7386C52.1174 30.0682 51.8277 29.5606 51.4489 29.2159C51.0739 28.8674 50.6269 28.6932 50.108 28.6932C49.3239 28.6932 48.7083 29.0795 48.2614 29.8523C47.8144 30.625 47.589 31.7367 47.5852 33.1875C47.5852 34.1572 47.6856 34.9773 47.8864 35.6477C48.0909 36.3144 48.3807 36.8201 48.7557 37.1648C49.1307 37.5057 49.5814 37.6761 50.108 37.6761ZM60.4361 39.1932C59.5384 39.1894 58.7713 38.9527 58.1349 38.483C57.4986 38.0133 57.0118 37.3295 56.6747 36.4318C56.3376 35.5341 56.169 34.4527 56.169 33.1875C56.169 31.9261 56.3376 30.8485 56.6747 29.9545C57.0156 29.0606 57.5043 28.3788 58.1406 27.9091C58.7808 27.4394 59.5459 27.2045 60.4361 27.2045C61.3262 27.2045 62.0895 27.4413 62.7259 27.9148C63.3622 28.3845 63.849 29.0663 64.1861 29.9602C64.527 30.8504 64.6974 31.9261 64.6974 33.1875C64.6974 34.4564 64.5289 35.5398 64.1918 36.4375C63.8546 37.3314 63.3679 38.0152 62.7315 38.4886C62.0952 38.9583 61.33 39.1932 60.4361 39.1932ZM60.4361 37.6761C61.224 37.6761 61.8395 37.2917 62.2827 36.5227C62.7296 35.7538 62.9531 34.642 62.9531 33.1875C62.9531 32.2216 62.8509 31.4053 62.6463 30.7386C62.4455 30.0682 62.1558 29.5606 61.777 29.2159C61.402 28.8674 60.955 28.6932 60.4361 28.6932C59.652 28.6932 59.0365 29.0795 58.5895 29.8523C58.1425 30.625 57.9171 31.7367 57.9134 33.1875C57.9134 34.1572 58.0137 34.9773 58.2145 35.6477C58.419 36.3144 58.7088 36.8201 59.0838 37.1648C59.4588 37.5057 59.9096 37.6761 60.4361 37.6761Z" fill="#191A15"/>
<path d="M0.579545 4.21023V3.27273H7.125V4.21023H4.38068V12H3.32386V4.21023H0.579545ZM10.3295 12.1364C9.73864 12.1364 9.22017 11.9957 8.77415 11.7145C8.33097 11.4332 7.98438 11.0398 7.73438 10.5341C7.48722 10.0284 7.36364 9.4375 7.36364 8.76136C7.36364 8.07955 7.48722 7.48437 7.73438 6.97585C7.98438 6.46733 8.33097 6.07244 8.77415 5.79119C9.22017 5.50994 9.73864 5.36932 10.3295 5.36932C10.9205 5.36932 11.4375 5.50994 11.8807 5.79119C12.3267 6.07244 12.6733 6.46733 12.9205 6.97585C13.1705 7.48437 13.2955 8.07955 13.2955 8.76136C13.2955 9.4375 13.1705 10.0284 12.9205 10.5341C12.6733 11.0398 12.3267 11.4332 11.8807 11.7145C11.4375 11.9957 10.9205 12.1364 10.3295 12.1364ZM10.3295 11.233C10.7784 11.233 11.1477 11.1179 11.4375 10.8878C11.7273 10.6577 11.9418 10.3551 12.081 9.98011C12.2202 9.60511 12.2898 9.19886 12.2898 8.76136C12.2898 8.32386 12.2202 7.91619 12.081 7.53835C11.9418 7.16051 11.7273 6.85511 11.4375 6.62216C11.1477 6.3892 10.7784 6.27273 10.3295 6.27273C9.88068 6.27273 9.51136 6.3892 9.22159 6.62216C8.93182 6.85511 8.71733 7.16051 8.57812 7.53835C8.43892 7.91619 8.36932 8.32386 8.36932 8.76136C8.36932 9.19886 8.43892 9.60511 8.57812 9.98011C8.71733 10.3551 8.93182 10.6577 9.22159 10.8878C9.51136 11.1179 9.88068 11.233 10.3295 11.233ZM17.6772 5.45455V6.30682H14.2852V5.45455H17.6772ZM15.2738 3.88636H16.2795V10.125C16.2795 10.4091 16.3207 10.6222 16.4031 10.7642C16.4883 10.9034 16.5962 10.9972 16.7269 11.0455C16.8604 11.0909 17.0011 11.1136 17.1488 11.1136C17.2596 11.1136 17.3505 11.108 17.4215 11.0966C17.4925 11.0824 17.5494 11.071 17.592 11.0625L17.7965 11.9659C17.7283 11.9915 17.6332 12.017 17.511 12.0426C17.3888 12.071 17.234 12.0852 17.0465 12.0852C16.7624 12.0852 16.484 12.0241 16.2113 11.902C15.9414 11.7798 15.717 11.5938 15.538 11.3438C15.3619 11.0938 15.2738 10.7784 15.2738 10.3977V3.88636ZM21.1161 12.1534C20.7013 12.1534 20.3249 12.0753 19.9869 11.919C19.6488 11.7599 19.3803 11.5312 19.1815 11.233C18.9826 10.9318 18.8832 10.5682 18.8832 10.142C18.8832 9.76705 18.957 9.46307 19.1048 9.23011C19.2525 8.99432 19.4499 8.80966 19.6971 8.67614C19.9442 8.54261 20.217 8.44318 20.5153 8.37784C20.8164 8.30966 21.119 8.25568 21.4229 8.21591C21.8207 8.16477 22.1431 8.12642 22.3903 8.10085C22.6403 8.07244 22.8221 8.02557 22.9357 7.96023C23.0522 7.89489 23.1104 7.78125 23.1104 7.61932V7.58523C23.1104 7.16477 22.9954 6.83807 22.7653 6.60511C22.538 6.37216 22.1928 6.25568 21.7298 6.25568C21.2496 6.25568 20.8732 6.3608 20.6005 6.57102C20.3278 6.78125 20.136 7.00568 20.0252 7.24432L19.0707 6.90341C19.2411 6.50568 19.4684 6.19602 19.7525 5.97443C20.0394 5.75 20.3519 5.59375 20.69 5.50568C21.0309 5.41477 21.3661 5.36932 21.6957 5.36932C21.9059 5.36932 22.1474 5.39489 22.4201 5.44602C22.6957 5.49432 22.9613 5.59517 23.217 5.74858C23.4755 5.90199 23.69 6.13352 23.8604 6.44318C24.0309 6.75284 24.1161 7.16761 24.1161 7.6875V12H23.1104V11.1136H23.0593C22.9911 11.2557 22.8775 11.4077 22.7184 11.5696C22.5593 11.7315 22.3477 11.8693 22.0835 11.983C21.8192 12.0966 21.4968 12.1534 21.1161 12.1534ZM21.2695 11.25C21.6673 11.25 22.0025 11.1719 22.2752 11.0156C22.5508 10.8594 22.7582 10.6577 22.8974 10.4105C23.0394 10.1634 23.1104 9.90341 23.1104 9.63068V8.71023C23.0678 8.76136 22.9741 8.80824 22.8292 8.85085C22.6871 8.89062 22.5224 8.92614 22.3349 8.95739C22.1502 8.9858 21.9698 9.01136 21.7937 9.03409C21.6204 9.05398 21.4798 9.07102 21.3718 9.08523C21.1104 9.11932 20.8661 9.17472 20.6388 9.25142C20.4144 9.32528 20.2326 9.4375 20.0934 9.58807C19.957 9.7358 19.8888 9.9375 19.8888 10.1932C19.8888 10.5426 20.0181 10.8068 20.2766 10.9858C20.538 11.1619 20.869 11.25 21.2695 11.25ZM26.9574 3.27273V12H25.9517V3.27273H26.9574ZM33.3675 3.27273V12H32.3107V3.27273H33.3675ZM36.3558 8.0625V12H35.3501V5.45455H36.3217V6.47727H36.407C36.5604 6.14489 36.7933 5.87784 37.1058 5.67614C37.4183 5.47159 37.8217 5.36932 38.3161 5.36932C38.7592 5.36932 39.147 5.46023 39.4794 5.64205C39.8118 5.82102 40.0703 6.09375 40.255 6.46023C40.4396 6.82386 40.532 7.28409 40.532 7.84091V12H39.5263V7.90909C39.5263 7.39489 39.3928 6.99432 39.1257 6.70739C38.8587 6.41761 38.4922 6.27273 38.0263 6.27273C37.7053 6.27273 37.4183 6.34233 37.1655 6.48153C36.9155 6.62074 36.718 6.82386 36.5732 7.09091C36.4283 7.35795 36.3558 7.68182 36.3558 8.0625ZM45.0288 12.1364C44.4151 12.1364 43.8867 11.9915 43.4435 11.7017C43.0004 11.4119 42.6594 11.0128 42.4208 10.5043C42.1822 9.99574 42.0629 9.41477 42.0629 8.76136C42.0629 8.09659 42.185 7.50994 42.4293 7.00142C42.6765 6.49006 43.0202 6.09091 43.4606 5.80398C43.9038 5.5142 44.4208 5.36932 45.0117 5.36932C45.4719 5.36932 45.8867 5.45455 46.256 5.625C46.6254 5.79545 46.9279 6.03409 47.1637 6.34091C47.3995 6.64773 47.5458 7.00568 47.6026 7.41477H46.5969C46.5202 7.11648 46.3498 6.85227 46.0856 6.62216C45.8242 6.3892 45.4719 6.27273 45.0288 6.27273C44.6367 6.27273 44.293 6.375 43.9975 6.57955C43.7049 6.78125 43.4762 7.06676 43.3114 7.43608C43.1495 7.80256 43.0685 8.23295 43.0685 8.72727C43.0685 9.23295 43.1481 9.6733 43.3072 10.0483C43.4691 10.4233 43.6964 10.7145 43.989 10.9219C44.2844 11.1293 44.631 11.233 45.0288 11.233C45.2901 11.233 45.5273 11.1875 45.7404 11.0966C45.9535 11.0057 46.1339 10.875 46.2816 10.7045C46.4293 10.5341 46.5344 10.3295 46.5969 10.0909H47.6026C47.5458 10.4773 47.4052 10.8253 47.1808 11.1349C46.9592 11.4418 46.6651 11.6861 46.2987 11.8679C45.935 12.0469 45.5117 12.1364 45.0288 12.1364ZM51.7319 12.1364C51.141 12.1364 50.6225 11.9957 50.1765 11.7145C49.7333 11.4332 49.3867 11.0398 49.1367 10.5341C48.8896 10.0284 48.766 9.4375 48.766 8.76136C48.766 8.07955 48.8896 7.48437 49.1367 6.97585C49.3867 6.46733 49.7333 6.07244 50.1765 5.79119C50.6225 5.50994 51.141 5.36932 51.7319 5.36932C52.3228 5.36932 52.8398 5.50994 53.283 5.79119C53.729 6.07244 54.0756 6.46733 54.3228 6.97585C54.5728 7.48437 54.6978 8.07955 54.6978 8.76136C54.6978 9.4375 54.5728 10.0284 54.3228 10.5341C54.0756 11.0398 53.729 11.4332 53.283 11.7145C52.8398 11.9957 52.3228 12.1364 51.7319 12.1364ZM51.7319 11.233C52.1808 11.233 52.5501 11.1179 52.8398 10.8878C53.1296 10.6577 53.3441 10.3551 53.4833 9.98011C53.6225 9.60511 53.6921 9.19886 53.6921 8.76136C53.6921 8.32386 53.6225 7.91619 53.4833 7.53835C53.3441 7.16051 53.1296 6.85511 52.8398 6.62216C52.5501 6.3892 52.1808 6.27273 51.7319 6.27273C51.283 6.27273 50.9137 6.3892 50.6239 6.62216C50.3342 6.85511 50.1197 7.16051 49.9805 7.53835C49.8413 7.91619 49.7717 8.32386 49.7717 8.76136C49.7717 9.19886 49.8413 9.60511 49.9805 9.98011C50.1197 10.3551 50.3342 10.6577 50.6239 10.8878C50.9137 11.1179 51.283 11.233 51.7319 11.233ZM56.233 12V5.45455H57.2045V6.47727H57.2898C57.4261 6.12784 57.6463 5.85653 57.9503 5.66335C58.2543 5.46733 58.6193 5.36932 59.0455 5.36932C59.4773 5.36932 59.8366 5.46733 60.1236 5.66335C60.4134 5.85653 60.6392 6.12784 60.8011 6.47727H60.8693C61.0369 6.1392 61.2884 5.87074 61.6236 5.67188C61.9588 5.47017 62.3608 5.36932 62.8295 5.36932C63.4148 5.36932 63.8935 5.55256 64.2656 5.91903C64.6378 6.28267 64.8239 6.84943 64.8239 7.61932V12H63.8182V7.61932C63.8182 7.13636 63.6861 6.79119 63.4219 6.58381C63.1577 6.37642 62.8466 6.27273 62.4886 6.27273C62.0284 6.27273 61.6719 6.41193 61.419 6.69034C61.1662 6.96591 61.0398 7.31534 61.0398 7.73864V12H60.017V7.51705C60.017 7.14489 59.8963 6.84517 59.6548 6.6179C59.4134 6.38778 59.1023 6.27273 58.7216 6.27273C58.4602 6.27273 58.2159 6.34233 57.9886 6.48153C57.7642 6.62074 57.5824 6.81392 57.4432 7.06108C57.3068 7.3054 57.2386 7.58807 57.2386 7.90909V12H56.233ZM69.407 12.1364C68.7763 12.1364 68.2322 11.9972 67.7749 11.7188C67.3203 11.4375 66.9695 11.0455 66.7223 10.5426C66.478 10.0369 66.3558 9.44886 66.3558 8.77841C66.3558 8.10795 66.478 7.51705 66.7223 7.00568C66.9695 6.49148 67.3132 6.09091 67.7536 5.80398C68.1967 5.5142 68.7138 5.36932 69.3047 5.36932C69.6456 5.36932 69.9822 5.42614 70.3146 5.53977C70.647 5.65341 70.9496 5.83807 71.2223 6.09375C71.495 6.34659 71.7124 6.68182 71.8743 7.09943C72.0362 7.51705 72.1172 8.03125 72.1172 8.64205V9.06818H67.0717V8.19886H71.0945C71.0945 7.82955 71.0206 7.5 70.8729 7.21023C70.728 6.92045 70.5206 6.69176 70.2507 6.52415C69.9837 6.35653 69.6683 6.27273 69.3047 6.27273C68.9041 6.27273 68.5575 6.37216 68.2649 6.57102C67.9751 6.76705 67.7521 7.02273 67.5959 7.33807C67.4396 7.65341 67.3615 7.99148 67.3615 8.35227V8.93182C67.3615 9.42614 67.4467 9.84517 67.6172 10.1889C67.7905 10.5298 68.0305 10.7898 68.3374 10.9688C68.6442 11.1449 69.0007 11.233 69.407 11.233C69.6712 11.233 69.9098 11.196 70.1229 11.1222C70.3388 11.0455 70.5249 10.9318 70.6811 10.7812C70.8374 10.6278 70.9581 10.4375 71.0433 10.2102L72.0149 10.483C71.9126 10.8125 71.7408 11.1023 71.4993 11.3523C71.2578 11.5994 70.9595 11.7926 70.6044 11.9318C70.2493 12.0682 69.8501 12.1364 69.407 12.1364Z" fill="#A9A7B6"/>
<path d="M109 39.6667V31.3333" stroke="#74C9A9" stroke-width="1.66667" stroke-linecap="round" stroke-linejoin="round"/>
<path d="M104 39.6667V26.3333" stroke="#74C9A9" stroke-width="1.66667" stroke-linecap="round" stroke-linejoin="round"/>
<path d="M99 39.6667V34.6667" stroke="#74C9A9" stroke-width="1.66667" stroke-linecap="round" stroke-linejoin="round"/>
</svg>
