<svg width="252" height="24" viewBox="0 0 252 24" fill="none" xmlns="http://www.w3.org/2000/svg">
<path d="M40.5852 5.90909H42.4773L46.9261 16.7756H47.0795L51.5284 5.90909H53.4205V19H51.9375V9.05398H51.8097L47.7188 19H46.2869L42.196 9.05398H42.0682V19H40.5852V5.90909ZM59.843 19.2045C58.9566 19.2045 58.1789 18.9936 57.5099 18.5717C56.8451 18.1499 56.3252 17.5597 55.9502 16.8011C55.5795 16.0426 55.3941 15.1562 55.3941 14.142C55.3941 13.1193 55.5795 12.2266 55.9502 11.4638C56.3252 10.701 56.8451 10.1087 57.5099 9.68679C58.1789 9.26491 58.9566 9.05398 59.843 9.05398C60.7294 9.05398 61.5049 9.26491 62.1697 9.68679C62.8387 10.1087 63.3586 10.701 63.7294 11.4638C64.1044 12.2266 64.2919 13.1193 64.2919 14.142C64.2919 15.1562 64.1044 16.0426 63.7294 16.8011C63.3586 17.5597 62.8387 18.1499 62.1697 18.5717C61.5049 18.9936 60.7294 19.2045 59.843 19.2045ZM59.843 17.8494C60.5163 17.8494 61.0703 17.6768 61.5049 17.3317C61.9396 16.9865 62.2613 16.5327 62.4701 15.9702C62.6789 15.4077 62.7833 14.7983 62.7833 14.142C62.7833 13.4858 62.6789 12.8743 62.4701 12.3075C62.2613 11.7408 61.9396 11.2827 61.5049 10.9332C61.0703 10.5838 60.5163 10.4091 59.843 10.4091C59.1697 10.4091 58.6157 10.5838 58.1811 10.9332C57.7464 11.2827 57.4247 11.7408 57.2159 12.3075C57.0071 12.8743 56.9026 13.4858 56.9026 14.142C56.9026 14.7983 57.0071 15.4077 57.2159 15.9702C57.4247 16.5327 57.7464 16.9865 58.1811 17.3317C58.6157 17.6768 59.1697 17.8494 59.843 17.8494ZM67.5631 13.0938V19H66.0546V9.18182H67.512V10.7159H67.6398C67.8699 10.2173 68.2194 9.81676 68.6881 9.5142C69.1569 9.20739 69.762 9.05398 70.5035 9.05398C71.1682 9.05398 71.7499 9.19034 72.2485 9.46307C72.7471 9.73153 73.1348 10.1406 73.4118 10.6903C73.6888 11.2358 73.8273 11.9261 73.8273 12.7614V19H72.3188V12.8636C72.3188 12.0923 72.1185 11.4915 71.7179 11.0611C71.3174 10.6264 70.7677 10.4091 70.0688 10.4091C69.5873 10.4091 69.1569 10.5135 68.7776 10.7223C68.4026 10.9311 68.1064 11.2358 67.8891 11.6364C67.6718 12.0369 67.5631 12.5227 67.5631 13.0938ZM80.1604 19.2045C79.2143 19.2045 78.3983 18.9957 77.7122 18.5781C77.0304 18.1562 76.5041 17.5682 76.1334 16.8139C75.7669 16.0554 75.5837 15.1733 75.5837 14.1676C75.5837 13.1619 75.7669 12.2756 76.1334 11.5085C76.5041 10.7372 77.0197 10.1364 77.6802 9.70597C78.345 9.27131 79.1206 9.05398 80.007 9.05398C80.5183 9.05398 81.0233 9.1392 81.5219 9.30966C82.0204 9.48011 82.4743 9.7571 82.8834 10.1406C83.2925 10.5199 83.6185 11.0227 83.8614 11.6491C84.1043 12.2756 84.2257 13.0469 84.2257 13.9631V14.6023H76.6575V13.2983H82.6916C82.6916 12.7443 82.5808 12.25 82.3592 11.8153C82.1419 11.3807 81.8308 11.0376 81.426 10.7862C81.0254 10.5348 80.5524 10.4091 80.007 10.4091C79.4061 10.4091 78.8862 10.5582 78.4473 10.8565C78.0126 11.1506 77.6781 11.5341 77.4437 12.0071C77.2094 12.4801 77.0922 12.9872 77.0922 13.5284V14.3977C77.0922 15.1392 77.22 15.7678 77.4757 16.2834C77.7356 16.7947 78.0957 17.1847 78.556 17.4531C79.0162 17.7173 79.551 17.8494 80.1604 17.8494C80.5567 17.8494 80.9146 17.794 81.2342 17.6832C81.5581 17.5682 81.8372 17.3977 82.0716 17.1719C82.306 16.9418 82.4871 16.6562 82.6149 16.3153L84.0723 16.7244C83.9189 17.2188 83.6611 17.6534 83.2989 18.0284C82.9366 18.3991 82.4892 18.6889 81.9565 18.8977C81.4239 19.1023 80.8251 19.2045 80.1604 19.2045ZM86.6532 22.6818C86.3975 22.6818 86.1695 22.6605 85.9693 22.6179C85.769 22.5795 85.6305 22.5412 85.5538 22.5028L85.9373 21.1733C86.3038 21.267 86.6276 21.3011 86.9089 21.2756C87.1901 21.25 87.4394 21.1243 87.6568 20.8984C87.8784 20.6768 88.0808 20.3168 88.264 19.8182L88.5453 19.0511L84.9146 9.18182H86.5509L89.2612 17.0057H89.3634L92.0737 9.18182H93.71L89.5424 20.4318C89.3549 20.9389 89.1227 21.3587 88.8457 21.6911C88.5687 22.0277 88.247 22.277 87.8805 22.4389C87.5183 22.6009 87.1092 22.6818 86.6532 22.6818ZM99.1723 7.31534V5.90909H108.99V7.31534H104.874V19H103.289V7.31534H99.1723ZM109.673 19V9.18182H111.13V10.6648H111.233C111.412 10.179 111.735 9.7848 112.204 9.48224C112.673 9.17969 113.201 9.02841 113.789 9.02841C113.9 9.02841 114.039 9.03054 114.205 9.0348C114.371 9.03906 114.497 9.04545 114.582 9.05398V10.5881C114.531 10.5753 114.414 10.5561 114.23 10.5305C114.052 10.5007 113.862 10.4858 113.662 10.4858C113.184 10.4858 112.758 10.5859 112.383 10.7862C112.012 10.9822 111.718 11.255 111.501 11.6044C111.288 11.9496 111.181 12.3437 111.181 12.7869V19H109.673ZM118.719 19.2301C118.097 19.2301 117.533 19.1129 117.026 18.8786C116.518 18.6399 116.116 18.2969 115.817 17.8494C115.519 17.3977 115.37 16.8523 115.37 16.2131C115.37 15.6506 115.481 15.1946 115.702 14.8452C115.924 14.4915 116.22 14.2145 116.591 14.0142C116.962 13.8139 117.371 13.6648 117.818 13.5668C118.27 13.4645 118.724 13.3835 119.18 13.3239C119.776 13.2472 120.26 13.1896 120.631 13.1513C121.006 13.1087 121.278 13.0384 121.449 12.9403C121.624 12.8423 121.711 12.6719 121.711 12.429V12.3778C121.711 11.7472 121.538 11.2571 121.193 10.9077C120.852 10.5582 120.334 10.3835 119.64 10.3835C118.92 10.3835 118.355 10.5412 117.946 10.8565C117.537 11.1719 117.249 11.5085 117.083 11.8665L115.651 11.3551C115.907 10.7585 116.248 10.294 116.674 9.96165C117.104 9.625 117.573 9.39062 118.08 9.25852C118.592 9.12216 119.094 9.05398 119.589 9.05398C119.904 9.05398 120.266 9.09233 120.675 9.16903C121.089 9.24148 121.487 9.39276 121.871 9.62287C122.258 9.85298 122.58 10.2003 122.836 10.6648C123.092 11.1293 123.219 11.7514 123.219 12.5312V19H121.711V17.6705H121.634C121.532 17.8835 121.361 18.1115 121.123 18.3544C120.884 18.5973 120.567 18.804 120.17 18.9744C119.774 19.1449 119.29 19.2301 118.719 19.2301ZM118.95 17.875C119.546 17.875 120.049 17.7578 120.458 17.5234C120.871 17.2891 121.182 16.9865 121.391 16.6158C121.604 16.245 121.711 15.8551 121.711 15.446V14.0653C121.647 14.142 121.506 14.2124 121.289 14.2763C121.076 14.3359 120.829 14.3892 120.548 14.4361C120.271 14.4787 120 14.517 119.736 14.5511C119.476 14.581 119.265 14.6065 119.103 14.6278C118.711 14.679 118.344 14.7621 118.004 14.8771C117.667 14.9879 117.394 15.1562 117.185 15.3821C116.981 15.6037 116.879 15.9062 116.879 16.2898C116.879 16.8139 117.072 17.2102 117.46 17.4787C117.852 17.7429 118.349 17.875 118.95 17.875ZM126.941 13.0938V19H125.433V9.18182H126.89V10.7159H127.018C127.248 10.2173 127.598 9.81676 128.066 9.5142C128.535 9.20739 129.14 9.05398 129.882 9.05398C130.546 9.05398 131.128 9.19034 131.627 9.46307C132.125 9.73153 132.513 10.1406 132.79 10.6903C133.067 11.2358 133.206 11.9261 133.206 12.7614V19H131.697V12.8636C131.697 12.0923 131.497 11.4915 131.096 11.0611C130.696 10.6264 130.146 10.4091 129.447 10.4091C128.965 10.4091 128.535 10.5135 128.156 10.7223C127.781 10.9311 127.485 11.2358 127.267 11.6364C127.05 12.0369 126.941 12.5227 126.941 13.0938ZM142.377 11.3807L141.022 11.7642C140.936 11.5384 140.811 11.3189 140.644 11.1058C140.482 10.8885 140.261 10.7095 139.98 10.5689C139.698 10.4283 139.338 10.358 138.899 10.358C138.299 10.358 137.798 10.4964 137.397 10.7734C137.001 11.0462 136.803 11.3935 136.803 11.8153C136.803 12.1903 136.939 12.4865 137.212 12.7038C137.485 12.9212 137.911 13.1023 138.49 13.2472L139.948 13.6051C140.825 13.8182 141.48 14.1442 141.91 14.5831C142.34 15.0178 142.556 15.5781 142.556 16.2642C142.556 16.8267 142.394 17.3295 142.07 17.7727C141.75 18.2159 141.303 18.5653 140.727 18.821C140.152 19.0767 139.483 19.2045 138.72 19.2045C137.719 19.2045 136.89 18.9872 136.234 18.5526C135.578 18.1179 135.162 17.483 134.987 16.6477L136.419 16.2898C136.556 16.8182 136.813 17.2145 137.193 17.4787C137.576 17.7429 138.077 17.875 138.695 17.875C139.398 17.875 139.956 17.7259 140.37 17.4276C140.787 17.125 140.996 16.7628 140.996 16.3409C140.996 16 140.877 15.7145 140.638 15.4844C140.399 15.25 140.033 15.0753 139.539 14.9602L137.902 14.5767C137.003 14.3636 136.343 14.0334 135.921 13.5859C135.503 13.1342 135.294 12.5696 135.294 11.892C135.294 11.3381 135.45 10.848 135.761 10.4219C136.076 9.99574 136.504 9.66122 137.046 9.41832C137.591 9.17543 138.209 9.05398 138.899 9.05398C139.871 9.05398 140.634 9.26705 141.188 9.69318C141.746 10.1193 142.142 10.6818 142.377 11.3807ZM148.659 9.18182V10.4602H143.366V9.18182H148.659ZM144.951 19V7.8267C144.951 7.2642 145.083 6.79545 145.347 6.42045C145.612 6.04545 145.955 5.7642 146.377 5.5767C146.798 5.3892 147.244 5.29545 147.713 5.29545C148.083 5.29545 148.386 5.32528 148.62 5.38494C148.855 5.4446 149.029 5.5 149.144 5.55114L148.71 6.85511C148.633 6.82954 148.526 6.79758 148.39 6.75923C148.258 6.72088 148.083 6.7017 147.866 6.7017C147.367 6.7017 147.007 6.82741 146.786 7.07884C146.568 7.33026 146.46 7.69886 146.46 8.18466V19H144.951ZM153.945 19.2045C152.999 19.2045 152.183 18.9957 151.497 18.5781C150.815 18.1562 150.289 17.5682 149.918 16.8139C149.551 16.0554 149.368 15.1733 149.368 14.1676C149.368 13.1619 149.551 12.2756 149.918 11.5085C150.289 10.7372 150.804 10.1364 151.465 9.70597C152.13 9.27131 152.905 9.05398 153.791 9.05398C154.303 9.05398 154.808 9.1392 155.306 9.30966C155.805 9.48011 156.259 9.7571 156.668 10.1406C157.077 10.5199 157.403 11.0227 157.646 11.6491C157.889 12.2756 158.01 13.0469 158.01 13.9631V14.6023H150.442V13.2983H156.476C156.476 12.7443 156.365 12.25 156.144 11.8153C155.926 11.3807 155.615 11.0376 155.211 10.7862C154.81 10.5348 154.337 10.4091 153.791 10.4091C153.191 10.4091 152.671 10.5582 152.232 10.8565C151.797 11.1506 151.463 11.5341 151.228 12.0071C150.994 12.4801 150.877 12.9872 150.877 13.5284V14.3977C150.877 15.1392 151.005 15.7678 151.26 16.2834C151.52 16.7947 151.88 17.1847 152.34 17.4531C152.801 17.7173 153.336 17.8494 153.945 17.8494C154.341 17.8494 154.699 17.794 155.019 17.6832C155.343 17.5682 155.622 17.3977 155.856 17.1719C156.09 16.9418 156.272 16.6562 156.399 16.3153L157.857 16.7244C157.703 17.2188 157.446 17.6534 157.083 18.0284C156.721 18.3991 156.274 18.6889 155.741 18.8977C155.208 19.1023 154.61 19.2045 153.945 19.2045ZM159.765 19V9.18182H161.222V10.6648H161.325C161.504 10.179 161.827 9.7848 162.296 9.48224C162.765 9.17969 163.293 9.02841 163.881 9.02841C163.992 9.02841 164.131 9.03054 164.297 9.0348C164.463 9.03906 164.589 9.04545 164.674 9.05398V10.5881C164.623 10.5753 164.506 10.5561 164.323 10.5305C164.144 10.5007 163.954 10.4858 163.754 10.4858C163.276 10.4858 162.85 10.5859 162.475 10.7862C162.104 10.9822 161.81 11.255 161.593 11.6044C161.38 11.9496 161.274 12.3437 161.274 12.7869V19H159.765ZM177.808 9.18182C177.732 8.53409 177.421 8.03125 176.875 7.6733C176.33 7.31534 175.661 7.13636 174.868 7.13636C174.288 7.13636 173.781 7.23011 173.347 7.41761C172.916 7.60511 172.58 7.86293 172.337 8.19105C172.098 8.51918 171.979 8.89204 171.979 9.30966C171.979 9.65909 172.062 9.95952 172.228 10.2109C172.399 10.4581 172.616 10.6648 172.88 10.831C173.144 10.9929 173.421 11.1271 173.711 11.2337C174.001 11.3359 174.267 11.419 174.51 11.483L175.84 11.8409C176.181 11.9304 176.56 12.054 176.977 12.2116C177.399 12.3693 177.802 12.5845 178.186 12.8572C178.573 13.1257 178.893 13.4709 179.144 13.8928C179.396 14.3146 179.521 14.8324 179.521 15.446C179.521 16.1534 179.336 16.7926 178.965 17.3636C178.599 17.9347 178.062 18.3885 177.355 18.7251C176.651 19.0618 175.797 19.2301 174.791 19.2301C173.854 19.2301 173.042 19.0788 172.356 18.7763C171.674 18.4737 171.137 18.0518 170.745 17.5107C170.357 16.9695 170.138 16.3409 170.087 15.625H171.723C171.766 16.1193 171.932 16.5284 172.222 16.8523C172.516 17.1719 172.886 17.4105 173.334 17.5682C173.786 17.7216 174.271 17.7983 174.791 17.7983C175.396 17.7983 175.94 17.7003 176.421 17.5043C176.903 17.304 177.284 17.027 177.565 16.6733C177.847 16.3153 177.987 15.8977 177.987 15.4205C177.987 14.9858 177.866 14.6321 177.623 14.3594C177.38 14.0866 177.061 13.8651 176.664 13.6946C176.268 13.5241 175.84 13.375 175.379 13.2472L173.769 12.7869C172.746 12.4929 171.936 12.0732 171.34 11.5277C170.743 10.9822 170.445 10.2685 170.445 9.38636C170.445 8.65341 170.643 8.0142 171.039 7.46875C171.44 6.91903 171.977 6.4929 172.65 6.19034C173.328 5.88352 174.084 5.73011 174.919 5.73011C175.763 5.73011 176.513 5.88139 177.169 6.18395C177.825 6.48224 178.345 6.89133 178.729 7.41122C179.117 7.93111 179.321 8.52131 179.342 9.18182H177.808ZM187.571 14.9858V9.18182H189.079V19H187.571V17.3381H187.468C187.238 17.8366 186.88 18.2607 186.395 18.6101C185.909 18.9553 185.295 19.1278 184.554 19.1278C183.94 19.1278 183.395 18.9936 182.917 18.7251C182.44 18.4524 182.065 18.0433 181.792 17.4979C181.52 16.9482 181.383 16.2557 181.383 15.4205V9.18182H182.892V15.3182C182.892 16.0341 183.092 16.6051 183.493 17.0312C183.897 17.4574 184.413 17.6705 185.04 17.6705C185.415 17.6705 185.796 17.5746 186.184 17.3828C186.576 17.1911 186.904 16.897 187.168 16.5007C187.437 16.1044 187.571 15.5994 187.571 14.9858ZM195.291 19.2045C194.37 19.2045 193.578 18.9872 192.913 18.5526C192.248 18.1179 191.737 17.5192 191.379 16.7564C191.021 15.9936 190.842 15.1222 190.842 14.142C190.842 13.1449 191.025 12.2649 191.392 11.5021C191.762 10.7351 192.278 10.1364 192.939 9.70597C193.603 9.27131 194.379 9.05398 195.265 9.05398C195.956 9.05398 196.578 9.18182 197.132 9.4375C197.686 9.69318 198.14 10.0511 198.493 10.5114C198.847 10.9716 199.066 11.5085 199.152 12.1222H197.643C197.528 11.6747 197.272 11.2784 196.876 10.9332C196.484 10.5838 195.956 10.4091 195.291 10.4091C194.703 10.4091 194.187 10.5625 193.744 10.8693C193.305 11.1719 192.962 11.6001 192.715 12.1541C192.472 12.7038 192.351 13.3494 192.351 14.0909C192.351 14.8494 192.47 15.5099 192.708 16.0724C192.951 16.6349 193.292 17.0717 193.731 17.3828C194.174 17.6939 194.694 17.8494 195.291 17.8494C195.683 17.8494 196.039 17.7812 196.358 17.6449C196.678 17.5085 196.949 17.3125 197.17 17.0568C197.392 16.8011 197.549 16.4943 197.643 16.1364H199.152C199.066 16.7159 198.856 17.2379 198.519 17.7024C198.186 18.1626 197.745 18.5291 197.196 18.8018C196.65 19.0703 196.015 19.2045 195.291 19.2045ZM204.806 19.2045C203.885 19.2045 203.092 18.9872 202.428 18.5526C201.763 18.1179 201.252 17.5192 200.894 16.7564C200.536 15.9936 200.357 15.1222 200.357 14.142C200.357 13.1449 200.54 12.2649 200.906 11.5021C201.277 10.7351 201.793 10.1364 202.453 9.70597C203.118 9.27131 203.894 9.05398 204.78 9.05398C205.47 9.05398 206.092 9.18182 206.646 9.4375C207.2 9.69318 207.654 10.0511 208.008 10.5114C208.362 10.9716 208.581 11.5085 208.666 12.1222H207.158C207.043 11.6747 206.787 11.2784 206.391 10.9332C205.999 10.5838 205.47 10.4091 204.806 10.4091C204.217 10.4091 203.702 10.5625 203.259 10.8693C202.82 11.1719 202.477 11.6001 202.23 12.1541C201.987 12.7038 201.865 13.3494 201.865 14.0909C201.865 14.8494 201.985 15.5099 202.223 16.0724C202.466 16.6349 202.807 17.0717 203.246 17.3828C203.689 17.6939 204.209 17.8494 204.806 17.8494C205.198 17.8494 205.553 17.7812 205.873 17.6449C206.193 17.5085 206.463 17.3125 206.685 17.0568C206.906 16.8011 207.064 16.4943 207.158 16.1364H208.666C208.581 16.7159 208.37 17.2379 208.034 17.7024C207.701 18.1626 207.26 18.5291 206.71 18.8018C206.165 19.0703 205.53 19.2045 204.806 19.2045ZM214.448 19.2045C213.502 19.2045 212.686 18.9957 212 18.5781C211.318 18.1562 210.792 17.5682 210.421 16.8139C210.055 16.0554 209.871 15.1733 209.871 14.1676C209.871 13.1619 210.055 12.2756 210.421 11.5085C210.792 10.7372 211.307 10.1364 211.968 9.70597C212.633 9.27131 213.408 9.05398 214.295 9.05398C214.806 9.05398 215.311 9.1392 215.81 9.30966C216.308 9.48011 216.762 9.7571 217.171 10.1406C217.58 10.5199 217.906 11.0227 218.149 11.6491C218.392 12.2756 218.513 13.0469 218.513 13.9631V14.6023H210.945V13.2983H216.979C216.979 12.7443 216.869 12.25 216.647 11.8153C216.43 11.3807 216.119 11.0376 215.714 10.7862C215.313 10.5348 214.84 10.4091 214.295 10.4091C213.694 10.4091 213.174 10.5582 212.735 10.8565C212.3 11.1506 211.966 11.5341 211.731 12.0071C211.497 12.4801 211.38 12.9872 211.38 13.5284V14.3977C211.38 15.1392 211.508 15.7678 211.763 16.2834C212.023 16.7947 212.383 17.1847 212.844 17.4531C213.304 17.7173 213.839 17.8494 214.448 17.8494C214.844 17.8494 215.202 17.794 215.522 17.6832C215.846 17.5682 216.125 17.3977 216.359 17.1719C216.594 16.9418 216.775 16.6562 216.903 16.3153L218.36 16.7244C218.207 17.2188 217.949 17.6534 217.587 18.0284C217.224 18.3991 216.777 18.6889 216.244 18.8977C215.712 19.1023 215.113 19.2045 214.448 19.2045ZM227.223 11.3807L225.868 11.7642C225.782 11.5384 225.657 11.3189 225.49 11.1058C225.329 10.8885 225.107 10.7095 224.826 10.5689C224.544 10.4283 224.184 10.358 223.745 10.358C223.145 10.358 222.644 10.4964 222.243 10.7734C221.847 11.0462 221.649 11.3935 221.649 11.8153C221.649 12.1903 221.785 12.4865 222.058 12.7038C222.331 12.9212 222.757 13.1023 223.336 13.2472L224.794 13.6051C225.672 13.8182 226.326 14.1442 226.756 14.5831C227.187 15.0178 227.402 15.5781 227.402 16.2642C227.402 16.8267 227.24 17.3295 226.916 17.7727C226.596 18.2159 226.149 18.5653 225.574 18.821C224.998 19.0767 224.329 19.2045 223.566 19.2045C222.565 19.2045 221.736 18.9872 221.08 18.5526C220.424 18.1179 220.008 17.483 219.834 16.6477L221.265 16.2898C221.402 16.8182 221.66 17.2145 222.039 17.4787C222.422 17.7429 222.923 17.875 223.541 17.875C224.244 17.875 224.802 17.7259 225.216 17.4276C225.633 17.125 225.842 16.7628 225.842 16.3409C225.842 16 225.723 15.7145 225.484 15.4844C225.245 15.25 224.879 15.0753 224.385 14.9602L222.748 14.5767C221.849 14.3636 221.189 14.0334 220.767 13.5859C220.349 13.1342 220.14 12.5696 220.14 11.892C220.14 11.3381 220.296 10.848 220.607 10.4219C220.922 9.99574 221.351 9.66122 221.892 9.41832C222.437 9.17543 223.055 9.05398 223.745 9.05398C224.717 9.05398 225.48 9.26705 226.034 9.69318C226.592 10.1193 226.988 10.6818 227.223 11.3807ZM233.505 9.18182V10.4602H228.212V9.18182H233.505ZM229.797 19V7.8267C229.797 7.2642 229.929 6.79545 230.194 6.42045C230.458 6.04545 230.801 5.7642 231.223 5.5767C231.645 5.3892 232.09 5.29545 232.559 5.29545C232.929 5.29545 233.232 5.32528 233.466 5.38494C233.701 5.4446 233.875 5.5 233.99 5.55114L233.556 6.85511C233.479 6.82954 233.373 6.79758 233.236 6.75923C233.104 6.72088 232.929 6.7017 232.712 6.7017C232.213 6.7017 231.853 6.82741 231.632 7.07884C231.414 7.33026 231.306 7.69886 231.306 8.18466V19H229.797ZM241.266 14.9858V9.18182H242.775V19H241.266V17.3381H241.164C240.934 17.8366 240.576 18.2607 240.09 18.6101C239.604 18.9553 238.991 19.1278 238.249 19.1278C237.636 19.1278 237.09 18.9936 236.613 18.7251C236.136 18.4524 235.761 18.0433 235.488 17.4979C235.215 16.9482 235.079 16.2557 235.079 15.4205V9.18182H236.587V15.3182C236.587 16.0341 236.788 16.6051 237.188 17.0312C237.593 17.4574 238.109 17.6705 238.735 17.6705C239.11 17.6705 239.491 17.5746 239.879 17.3828C240.271 17.1911 240.599 16.897 240.864 16.5007C241.132 16.1044 241.266 15.5994 241.266 14.9858ZM246.506 5.90909V19H244.998V5.90909H246.506ZM250.238 5.90909V19H248.729V5.90909H250.238Z" fill="#191A15"/>
<path fill-rule="evenodd" clip-rule="evenodd" d="M2.83333 11C2.83333 5.9374 6.93739 1.83334 12 1.83334C17.0626 1.83334 21.1667 5.9374 21.1667 11C21.1667 16.0626 17.0626 20.1667 12 20.1667C6.93739 20.1667 2.83333 16.0626 2.83333 11ZM12 0.166672C6.01692 0.166672 1.16667 5.01692 1.16667 11C1.16667 16.9831 6.01692 21.8333 12 21.8333C17.9831 21.8333 22.8333 16.9831 22.8333 11C22.8333 5.01692 17.9831 0.166672 12 0.166672ZM11.9301 14.6944L17.7196 8.69437L16.2804 7.30564L11.1148 12.6591L7.61369 9.93773L6.38631 11.5168L10.5968 14.7896L11.3062 15.341L11.9301 14.6944Z" fill="#2B9B5B"/>
</svg>
